<svg width="207" height="65" viewBox="0 0 207 65" fill="none" xmlns="http://www.w3.org/2000/svg">
<rect x="39.5896" y="0.999992" width="14" height="54.7402" rx="7" transform="rotate(45 39.5896 0.999992)" fill="#432CF3"/>
<rect x="54.4104" y="15" width="14" height="35.2437" rx="7" transform="rotate(45 54.4104 15)" fill="#A49BEE"/>
<path d="M105.133 34.5241C105.133 29.156 101.689 26.2187 95.3079 24.9526L89.0788 23.6865C86.4454 23.1801 84.1664 22.1166 84.1664 19.6351C84.1664 17.1029 86.2934 14.9759 90.041 14.9759C93.8899 14.9759 96.5233 17.5587 96.7766 21.3569H104.576C104.069 13.7605 98.0933 9 89.9397 9C82.09 9 76.3674 13.6592 76.3674 20.1415C76.3674 26.168 80.6214 29.156 86.1415 30.2195L92.1174 31.3843C95.2066 31.992 96.9791 33.3594 96.9791 35.6383C96.9791 38.5756 94.1938 40.2975 90.2942 40.2975C85.5844 40.2975 83.0016 37.7147 82.799 33.7139H75C75.5571 41.4116 81.2798 46.324 90.4462 46.324C99.5619 46.324 105.133 41.4623 105.133 34.5241Z" fill="black"/>
<path d="M121.596 46.324C128.838 46.324 133.902 41.7155 134.713 34.2709H127.319C126.914 37.9679 124.837 40.0949 121.596 40.0949C117.899 40.0949 115.62 37.1576 115.62 32.2958C115.62 27.4847 117.95 24.4968 121.596 24.4968C124.787 24.4968 126.964 26.7251 127.319 30.3208H134.713C133.852 23.0282 128.635 18.2677 121.596 18.2677C114 18.2677 108.429 24.1929 108.429 32.2958C108.429 40.5507 113.797 46.324 121.596 46.324Z" fill="black"/>
<path d="M155.337 45.8176H161.059V28.8015C161.059 22.1672 156.907 18.2677 149.817 18.2677C143.284 18.2677 138.776 22.3191 138.371 28.5483H144.702C144.955 25.5097 146.778 23.7372 149.817 23.7372C152.754 23.7372 154.476 25.5097 154.476 28.5483V30.1688C152.804 29.9663 151.488 29.865 149.968 29.865C142.068 29.865 137.814 32.701 137.814 37.9679C137.814 43.0322 141.562 46.324 147.183 46.324C150.88 46.324 153.564 45.0073 155.337 42.4751V45.8176ZM144.448 37.7653C144.448 35.3344 146.423 34.0684 150.424 34.0684C151.64 34.0684 152.804 34.1696 154.476 34.4229V36.3473C154.476 39.4872 152.298 41.4623 148.702 41.4623C146.069 41.4623 144.448 40.0443 144.448 37.7653Z" fill="black"/>
<path d="M174.215 45.8176V9.45579H167.125V45.8176H174.215Z" fill="black"/>
<path d="M192.48 46.324C200.33 46.324 206.204 40.1455 206.204 32.2958C206.204 24.3955 200.33 18.2677 192.48 18.2677C184.63 18.2677 178.756 24.3955 178.756 32.2958C178.756 40.1455 184.63 46.324 192.48 46.324ZM192.48 40.0949C188.985 40.0949 185.998 37.3095 185.998 32.2958C185.998 27.2822 188.985 24.5474 192.48 24.5474C195.974 24.5474 198.962 27.2822 198.962 32.2958C198.962 37.3095 195.974 40.0949 192.48 40.0949Z" fill="black"/>
</svg>
